# xmcd
#
# Track frame offsets: 
#        150
#        30442
#        52467
#        72589
#        93259
#        113812
#        130374
#        151670
#        171480
#        190137
#        215144
#        241727
#
# Disc length: 3508 seconds
#
# Revision: 0
# Processed by: cddbd v1.5.2PL0 Copyright (c) Steve Scherf et al.
# Submitted via: ExactAudioCopy v1.0b3
#
DISCID=ad0db20c
DTITLE=Phuong Hong Que - Nhac Tuyen 1
DYEAR=1900
DGENRE=
TTITLE0=Pho dem
TTITLE1=Gian hon
TTITLE2=Nguoi ngoai pho
TTITLE3=Nho nguoi yeu
TTITLE4=Da Lat hoang hon
TTITLE5=Xe hoa mot chiec
TTITLE6=Tinh yeu tra lai trang sao
TTITLE7=Khoc tham
TTITLE8=Sac hoa mau nho
TTITLE9=Doi mat nguoi xua
TTITLE10=Dinh menh
TTITLE11=Anh ve keo mua
EXTD=
EXTT0=
EXTT1=
EXTT2=
EXTT3=
EXTT4=
EXTT5=
EXTT6=
EXTT7=
EXTT8=
EXTT9=
EXTT10=
EXTT11=
PLAYORDER=
